<svg xmlns="http://www.w3.org/2000/svg" width="400" height="225" viewBox="0 0 400 225">
  <rect width="400" height="225" fill="#1a1a2e"/>
  <rect width="400" height="225" fill="url(#grad)" opacity="0.6"/>
  <defs>
    <linearGradient id="grad" x1="0%" y1="0%" x2="100%" y2="100%">
      <stop offset="0%" style="stop-color:#0f3460;stop-opacity:1" />
      <stop offset="100%" style="stop-color:#16213e;stop-opacity:1" />
    </linearGradient>
  </defs>
  <!-- ticket icon -->
  <g transform="translate(200,112) scale(1)" opacity="0.25">
    <path d="M-70,-35 L70,-35 Q75,-35 75,-30 L75,-15 Q60,-15 60,0 Q60,15 75,15 L75,30 Q75,35 70,35 L-70,35 Q-75,35 -75,30 L-75,15 Q-60,15 -60,0 Q-60,-15 -75,-15 L-75,-30 Q-75,-35 -70,-35 Z" fill="white"/>
  </g>
  <!-- star/sport icon -->
  <g transform="translate(200,100)" opacity="0.4">
    <polygon points="0,-28 7,-10 26,-10 12,2 17,20 0,10 -17,20 -12,2 -26,-10 -7,-10" fill="white"/>
  </g>
  <text x="200" y="160" font-family="sans-serif" font-size="13" fill="white" fill-opacity="0.35" text-anchor="middle" letter-spacing="3" font-weight="600">EVENTO</text>
</svg>
